# xmcd
# Copyright (C) 1995-1998 Ti Kan
#
# Track frame offsets:
#       150
#       8550
#       18787
#       26900
#       40112
#       50700
#       62837
#       73362
#
# Disc length: 1299 seconds
#
# Revision: 0
# Processed by: cddbd v1.5.2PL0 Copyright (c) Steve Scherf et al.
# Submitted via: CD-Import v1.0
#
DISCID=68051108
DTITLE=London Sinfonietta - Kleine Drei Groschen Musik
DYEAR=1900
DGENRE=
TTITLE0=Overture
TTITLE1=Mack The Knife
TTITLE2=Instead-Of Song
TTITLE3=The Ballad Of Pleasent Living
TTITLE4=Polly's Song
TTITLE5=Tango-Ballade
TTITLE6=Cannon Song
TTITLE7=Finale
EXTD=
EXTT0=
EXTT1=
EXTT2=
EXTT3=
EXTT4=
EXTT5=
EXTT6=
EXTT7=
PLAYORDER=
